# xmcd CD database file
#
# Track frame offsets:
#	150
#	10817
#	31651
#	54255
#	79654
#	96043
#	123558
#	142811
#	151240
#	166535
#	183880
#	199608
#	214272
#	229606
#
# Disc length: 3216 seconds
#
# Revision: 0
# Processed by: cddbd v1.5.2PL0 Copyright (c) Steve Scherf et al.
# Submitted via: CDex 1.51
#
DISCID=9c0c8e0e
DTITLE=BB King - Originals
DYEAR=1900
DGENRE=Blues
TTITLE0=RecessionBlues
TTITLE1=Thrill is Gone
TTITLE2=Everyday I Have the Blues
TTITLE3=Guess Who?
TTITLE4=My guitar sings the blues
TTITLE5=Paying the Cost to the Boss
TTITLE6=Sweet Sixteen
TTITLE7=A New Way of Driving
TTITLE8=Letter
TTITLE9=That Evil Child
TTITLE10=Lonely Nights
TTITLE11=BB Boogie
TTITLE12=Walking and Crying
TTITLE13=Paying the Cost to the Boss (v2)
EXTD=
EXTT0=
EXTT1=
EXTT2=
EXTT3=
EXTT4=
EXTT5=
EXTT6=
EXTT7=
EXTT8=
EXTT9=
EXTT10=
EXTT11=
EXTT12=
EXTT13=
PLAYORDER=
